<svg width="198" height="98" viewBox="0 0 198 98" fill="none" xmlns="http://www.w3.org/2000/svg">
<path d="M39 3L41 1H44L46 3V4V8H47H66H67H82L83.5 8.5L84 9.5V11L83.5 12.5L82 13H47L46 14V25C81.2 45.8 131 34.6667 151 26L152 25.5L153 24.5V14L152 13H117L115 12V10L115.5 9.5L116 9H117H118H152L153 8V3L155 1H158L160 3V8L161 9H195H196L197 10V12L196 13H195H161L160 14V96L159.5 96.5L159 97H158H157H156H155H154L153.5 96.5L153 96V31H152H151C131 39.6667 82.2 51.8 47 31H46V31.5V32V96L45.5 96.5L45 97H40L39 96V59V58V23V22V14L38 13H5H4H3L1 12V9L2 8H2.5H4H38H39V3Z" stroke="black" stroke-width="2"/>
</svg>
