<svg width="52" height="53" viewBox="0 0 52 53" fill="none" xmlns="http://www.w3.org/2000/svg">
<path d="M25.1377 0.504883C27.2456 0.583921 28.6972 1.86164 29.5752 3.11133L29.7188 3.32324C30.199 4.05425 30.5492 4.83881 30.7969 5.55859C32.4803 5.95996 34.5535 6.86931 36.3779 8.4834C38.8272 10.6505 40.7656 14.0347 40.7656 18.915V20.415H36.7656V18.915C36.7656 15.2156 35.3455 12.9101 33.7275 11.4785C32.0348 9.98112 30.062 9.38967 29.0576 9.3125H29.0566L28.6797 9.2832L27.5479 9.19531L27.3252 8.08203L27.251 7.71191C27.1147 7.03341 26.7929 6.11036 26.3018 5.41113C25.8535 4.77314 25.432 4.53774 25.0361 4.50586L24.8994 4.50098H24.8154C24.4326 4.50111 24.0413 4.67425 23.627 5.17969L23.4482 5.41699C22.9561 6.12249 22.633 7.05484 22.4961 7.74121V7.74512L22.4238 8.10352L22.208 9.17383L21.1221 9.29688L20.7598 9.33789C17.9913 9.65131 15.7732 11.3721 14.0654 13.6748C12.429 15.8816 11.4109 18.4344 10.9658 20.1523C10.9991 23.3047 11.0431 29.3714 10.9922 32.5801L10.9639 33.7842C10.9089 35.3121 10.1425 36.638 9.2627 37.6816H40.6094C40.1508 37.1387 39.7153 36.5197 39.3838 35.8418C37.6485 36.0908 35.4808 35.9535 33.4385 34.6992L32.1582 33.9121L32.9473 32.6328L33.21 32.207L33.4697 31.7842L34.2539 30.5049L35.5332 31.29C37.2472 32.3423 39.3359 31.907 40.2441 31.4971C42.5347 29.9367 45.3596 27.0833 46.6152 23.5811C47.6982 20.5599 47.6866 16.8869 44.7471 12.7988V14.9678H40.7471V6.81641L40.4521 6.49902H40.7471V5.49902H41.7471V4.95508L42.2529 5.49902H50.8418V9.49902H47.2598C51.6545 14.9747 52.0123 20.3794 50.3809 24.9307C48.8798 29.1179 45.7691 32.3991 43.126 34.3564C43.3684 34.7607 43.7484 35.2434 44.3027 35.7783C45.3014 36.7419 46.4987 37.5273 47.2295 37.8926L48.291 38.4238L48.0186 39.5791L47.9814 39.7354L49.3506 40.6816H47.7588L47.5225 41.6816H2.22559L1.98828 40.6816H0.274414L1.75586 39.6992L1.72754 39.582L1.45312 38.4277L2.5127 37.8955C3.29113 37.5039 4.4947 36.7564 5.48145 35.8516C6.55272 34.8691 6.94947 34.0853 6.96582 33.6416L6.99316 32.4717C7.04313 29.2704 6.99878 23.0436 6.96484 19.9395L6.96387 19.877L6.96094 19.6865L7.00586 19.501L7.01953 19.4424C7.53399 17.3002 8.76887 14.1019 10.8525 11.292C12.7085 8.78943 15.3702 6.42932 18.9424 5.59863C19.214 4.80181 19.6109 3.92504 20.167 3.12793L20.3438 2.88477C21.2634 1.67127 22.7285 0.500155 24.8154 0.5H24.9316L25.1377 0.504883Z" fill="black"/>
<path d="M15.3552 40.1782C14.6296 45.6497 15.5729 51.4941 25.1508 51.4941C34.7287 51.4941 35.0066 45.6497 33.9483 40.1782" stroke="black" stroke-width="3"/>
</svg>
