<svg width="21" height="30" viewBox="0 0 21 30" fill="none" xmlns="http://www.w3.org/2000/svg">
<path d="M13.2109 23H7.21094C5.71094 23 5.21094 21 5.21094 20.5C5.21094 20 4.21094 16.5 2.71094 15.5C1.21094 14.5 0.710938 11 0.710938 10.5C0.710938 10 1.71094 0.500015 10.2109 1.00002C18.7109 1.50002 19.7109 8.50002 19.7109 10.5C19.7109 12.1 18.3776 14.5 17.7109 15.5C17.0443 16.3333 15.6109 18.5 15.2109 20.5C14.8109 22.5 13.7109 23 13.2109 23Z"/>
<path d="M6.71094 25H13.7109M13.7109 26.5H6.71094M7.21094 28H13.2109M8.21094 29.5H12.2109M7.21094 23H13.2109C13.7109 23 14.8109 22.5 15.2109 20.5C15.6109 18.5 17.0443 16.3333 17.7109 15.5C18.3776 14.5 19.7109 12.1 19.7109 10.5C19.7109 8.50002 18.7109 1.50002 10.2109 1.00002C1.71094 0.500015 0.710938 10 0.710938 10.5C0.710938 11 1.21094 14.5 2.71094 15.5C4.21094 16.5 5.21094 20 5.21094 20.5C5.21094 21 5.71094 23 7.21094 23Z" stroke="white"/>
</svg>
