<svg width="353" height="249" viewBox="0 0 353 249" fill="none" xmlns="http://www.w3.org/2000/svg">
<path d="M87.1875 66H90H92.8125H98.1818L101.25 68.0455V71V73.5V76H115.312H118.125H120.938H123.75H126.562H129.375H132.188H174.375L177.188 78.5V81.5V83.6838V86L174.375 88L101.25 88.5V91V241V243.5L95.625 246H90H87.1875H84.375L81.5625 243.5V88.5H78.75H5.625L2 86V78L5.625 76H8.4375H81.5625V73.5V68.5L84.375 66H87.1875Z" stroke="black" stroke-width="4"/>
<path d="M226.05 2L221.15 4.12878V27.5454L218.7 29.6742H110.9H108.45L107.225 30.7385L106 31.8029V36.0605L108.45 38.1893H115.8H117.025H118.25H137.85L143.975 42.4468L147.65 44.5756L158.675 50.962L162.35 53.0907L221.15 87.1512V155.272V160.594V240.423L221.548 242.742L222.375 243.617L223.6 244.681L224.825 245.936L226.448 247H233.798L236.248 244.871L238.3 242.552V85.0225L306.9 46.7044L310.575 44.5756L314.25 42.4468L321.6 38.1893H346.1L351 36.0605V31.8029L348.55 29.6742H346.1L343 29.6742L289.5 29.6742L284.85 29.6742H240.75L238.3 27.5454V25.4166V24.3522V23.2878V22.2234V21.159V12.6439V11.5795V10.5151V4.12878L233.4 2" stroke="black" stroke-width="4"/>
</svg>
